<svg width="400" height="400" xmlns="http://www.w3.org/2000/svg">
  <defs>
    <linearGradient id="heroGrad1" x1="0%" y1="0%" x2="100%" y2="100%">
      <stop offset="0%" style="stop-color:#667eea;stop-opacity:1" />
      <stop offset="100%" style="stop-color:#764ba2;stop-opacity:1" />
    </linearGradient>
    <linearGradient id="heroGrad2" x1="0%" y1="0%" x2="100%" y2="100%">
      <stop offset="0%" style="stop-color:#20c997;stop-opacity:1" />
      <stop offset="100%" style="stop-color:#fd7e14;stop-opacity:1" />
    </linearGradient>
  </defs>
  
  <!-- Background circles -->
  <circle cx="100" cy="100" r="80" fill="rgba(32,201,151,0.1)"/>
  <circle cx="300" cy="300" r="60" fill="rgba(253,126,20,0.1)"/>
  <circle cx="350" cy="80" r="40" fill="rgba(111,66,193,0.1)"/>
  
  <!-- Main laptop -->
  <rect x="120" y="180" width="160" height="100" rx="8" fill="#2c3e50"/>
  <rect x="130" y="190" width="140" height="80" rx="4" fill="url(#heroGrad1)"/>
  <rect x="140" y="200" width="120" height="60" rx="2" fill="white"/>
  
  <!-- Screen content -->
  <rect x="150" y="210" width="100" height="40" rx="2" fill="url(#heroGrad2)"/>
  <circle cx="200" cy="230" r="8" fill="white"/>
  <polygon points="195,225 195,235 205,230" fill="url(#heroGrad2)"/>
  
  <!-- Laptop base -->
  <rect x="110" y="280" width="180" height="15" rx="7" fill="#34495e"/>
  
  <!-- Books stack -->
  <rect x="50" y="250" width="60" height="8" rx="2" fill="#fd7e14"/>
  <rect x="55" y="240" width="60" height="8" rx="2" fill="#20c997"/>
  <rect x="60" y="230" width="60" height="8" rx="2" fill="#6f42c1"/>
  
  <!-- Graduation cap -->
  <rect x="300" y="150" width="60" height="4" rx="2" fill="#212529"/>
  <rect x="320" y="140" width="20" height="20" rx="2" fill="#212529"/>
  <rect x="340" y="135" width="15" height="30" rx="1" fill="#ffc107"/>
  
  <!-- Floating elements -->
  <circle cx="80" cy="120" r="15" fill="rgba(255,193,7,0.3)"/>
  <rect x="320" y="200" width="30" height="30" rx="15" fill="rgba(13,110,253,0.3)"/>
  <polygon points="60,180 80,160 100,180 80,200" fill="rgba(220,53,69,0.3)"/>
</svg>
